# xmcd
#
# Track frame offsets: 
#        180
#        14240
#        29453
#        46982
#        64474
#        78408
#        97352
#        112713
#        122548
#        141803
#        159240
#        175032
#        195151
#        209617
#        230321
#        248551
#        261257
#        275814
#        294283
#        304809
#        320329
#
# Disc length: 4414 seconds
#
# Revision: 2
# Processed by: cddbd v1.5.2PL0 Copyright (c) Steve Scherf et al.
# Submitted via: ExactAudioCopyFreeDBPlugin 1.0
#
DISCID=2a113c15
DTITLE=Buckwheat Zydeco - Best Of Louisiana Zydeco, The
DYEAR=1996
DGENRE=R&B
TTITLE0=Buckwheat's Special
TTITLE1=Bad Luck
TTITLE2=Going Back To Big Mamou
TTITLE3=One For The Road
TTITLE4=Gonna Go Rockin' Tonight
TTITLE5=Josephine Is Not My Lady
TTITLE6=Ain't No Use, Baby
TTITLE7=Zydeco Boogie Woogie
TTITLE8=You Got Me Walkin' The Floor
TTITLE9=Ma Tit Feye
TTITLE10=Take It Easy, Baby
TTITLE11=Rock My Baby
TTITLE12=Madame Coco Bo
TTITLE13=I'm On The Wonder
TTITLE14=Party Down
TTITLE15=Tanya
TTITLE16=Don't Know Why
TTITLE17=Baby Do Right Sometime
TTITLE18=Zydeco Rock
TTITLE19=I Bought A Raccoon
TTITLE20=Buckwheat Music
EXTD=
EXTT0=
EXTT1=
EXTT2=
EXTT3=
EXTT4=
EXTT5=
EXTT6=
EXTT7=
EXTT8=
EXTT9=
EXTT10=
EXTT11=
EXTT12=
EXTT13=
EXTT14=
EXTT15=
EXTT16=
EXTT17=
EXTT18=
EXTT19=
EXTT20=
PLAYORDER=
